<svg width="24" height="24" viewBox="0 0 24 24" fill="none" xmlns="http://www.w3.org/2000/svg">
<path d="M1.68696 1.68696C0 3.37404 0 6.08957 0 11.52V12.48C0 17.9105 0 20.626 1.68696 22.313C3.37404 24 6.08957 24 11.52 24H12.48C17.9105 24 20.626 24 22.313 22.313C24 20.626 24 17.9105 24 12.48V11.52C24 6.08952 24 3.37398 22.313 1.68696C20.626 1.02179e-07 17.9105 0 12.48 0H11.52C6.08952 0 3.37398 1.02179e-07 1.68696 1.68696ZM4.05 7.30007H6.79002C6.88002 11.8801 8.89998 13.82 10.5 14.2201V7.30002H13.08V11.25C14.66 11.08 16.32 9.28002 16.88 7.30002H19.46C19.2489 8.32688 18.8282 9.29915 18.2243 10.156C17.6203 11.0129 16.8461 11.736 15.95 12.28C16.9505 12.7767 17.8343 13.4802 18.5428 14.3438C19.2513 15.2075 19.7684 16.2117 20.06 17.29H17.22C16.9583 16.3533 16.4258 15.5148 15.6892 14.8797C14.9527 14.2446 14.045 13.8411 13.08 13.72V17.29H12.77C7.30002 17.29 4.18002 13.54 4.05 7.30002V7.30007Z" fill="#18181B"/>
</svg>
