<svg width="60" height="60" viewBox="0 0 60 60" fill="none" xmlns="http://www.w3.org/2000/svg">
<path d="M57.7437 29.9998C57.7437 45.2923 45.3343 57.7018 30.0418 57.7018C14.7493 57.7018 2.33984 45.2923 2.33984 29.9998C2.33984 14.7073 14.7493 2.29785 30.0418 2.29785C45.3343 2.29785 57.7437 14.6655 57.7437 29.9998Z" fill="#FF6600"/>
<path d="M35.0557 18.5933C34.7214 18.0919 34.8886 17.4234 35.39 17.0891C38.3565 15.1671 44.3315 14.2897 48.468 15.2507C49.0529 15.376 49.429 15.961 49.3036 16.546C49.1783 17.1309 48.5933 17.507 48.0084 17.3816C44.415 16.5877 39.0668 17.298 36.5599 18.9276C36.3928 19.0529 36.1838 19.0947 35.9749 19.0947C35.5989 19.0947 35.2646 18.9276 35.0557 18.5933ZM17.5487 34.5961C17.298 34.805 17.0474 34.9721 16.7131 35.0975C16.4206 35.2228 16.0863 35.3064 15.7939 35.3064L15.2507 36.4763C15.1671 36.6435 15.1253 36.727 15.0418 36.8106C15 36.8524 14.9164 36.8941 14.8329 36.8941C14.7493 36.8941 14.6657 36.8524 14.624 36.8106C14.5822 36.7688 14.5404 36.6852 14.5404 36.6017C14.5404 36.5181 14.5822 36.4345 14.624 36.2674L15.2089 35.0557C15.0836 35.0975 15 35.1393 14.8747 35.1811C14.624 35.2646 14.415 35.3064 14.1643 35.3064C13.9136 35.3064 13.7047 35.2646 13.5376 35.1393C13.3705 35.0139 13.3287 34.8468 13.3287 34.6797C13.3287 34.5125 13.4123 34.3036 13.5794 34.1365C13.7047 34.0111 13.9136 33.8022 14.1643 33.5933C14.3315 33.4262 14.4568 33.3426 14.4986 33.3008C14.6657 33.1337 14.5404 32.9666 14.1226 33.1755C13.9554 33.2591 13.7883 33.3426 13.6212 33.468L13.4123 33.5933C13.3287 33.6351 13.2451 33.6769 13.1616 33.6769C13.1198 33.6769 13.078 33.6769 13.0362 33.6351C12.9944 33.5933 12.9526 33.5933 12.9526 33.5515C12.9109 33.5097 12.9109 33.468 12.9109 33.4262C12.9109 33.3426 12.9526 33.2591 13.0362 33.1755C13.1198 33.0919 13.2869 32.9666 13.4958 32.8412C13.9972 32.5487 14.3733 32.4234 14.6657 32.4234C15.2089 32.4234 15.4596 33.0084 15.1671 33.468C15.0836 33.5933 14.9164 33.7604 14.7075 33.9694L14.415 34.2618C14.2479 34.429 14.1643 34.5125 14.1643 34.5961C14.1643 34.6379 14.1643 34.6797 14.2061 34.7214C14.2479 34.7632 14.2897 34.7632 14.3315 34.7632C14.4568 34.7632 14.624 34.7214 14.8747 34.6379C15.1253 34.5543 15.3343 34.429 15.5432 34.3036C15.585 34.2618 15.6267 34.2618 15.6685 34.2201L16.2953 32.8412C16.3788 32.6741 16.4206 32.5905 16.5042 32.507C16.546 32.4652 16.6295 32.4234 16.7131 32.4234C16.7967 32.4234 16.8802 32.4652 16.922 32.507C16.9638 32.5487 17.0056 32.6323 17.0056 32.7159V32.6323C17.3816 32.2563 18.0084 32.1727 18.2591 32.7159C18.3008 32.8412 18.3426 32.9666 18.3426 33.1337C18.3426 33.3844 18.2591 33.6351 18.1337 33.8858C18.0084 34.1365 17.7994 34.3872 17.5487 34.5961ZM17.4652 33.7604C17.6323 33.5515 17.6741 33.3844 17.6741 33.2173C17.6741 33.1337 17.6323 33.0919 17.5905 33.0084C17.5487 32.9666 17.507 32.9248 17.4234 32.9248C17.3398 32.9248 17.2145 32.9666 17.0891 33.0501C16.9638 33.1337 16.8384 33.2173 16.7131 33.3426L16.6295 33.5097L16.1281 34.5961H16.1699C16.4206 34.5543 16.6713 34.429 16.8802 34.3036C17.1309 34.1365 17.298 33.9694 17.4652 33.7604ZM30.4178 34.0947C30.4596 34.1365 30.5014 34.2201 30.5014 34.2618C30.5014 34.429 30.3343 34.5961 30 34.8468C29.7493 35.0139 29.5404 35.1393 29.415 35.1811C29.2479 35.2646 29.0808 35.2646 28.9554 35.2646C28.7047 35.2646 28.5376 35.1393 28.4958 34.9304C28.3287 35.0557 28.1616 35.1393 28.078 35.1811C27.9526 35.2228 27.8273 35.2646 27.702 35.2646C27.4513 35.2646 27.2841 35.1811 27.1588 35.0557C27.117 35.0139 27.0752 34.9304 27.0334 34.8468C26.6574 35.0975 26.3231 35.2646 26.0306 35.2646C25.8635 35.2646 25.6964 35.2228 25.571 35.0975C25.4457 34.9721 25.4039 34.8468 25.4039 34.6797C25.4039 34.5961 25.4457 34.4707 25.4875 34.3036C25.5292 34.1783 25.6546 33.9276 25.8635 33.5097C25.9889 33.259 26.0306 33.1337 26.0306 33.0919C26.0306 33.0084 25.9889 32.9666 25.9053 32.9666C25.8217 32.9666 25.7382 33.0084 25.571 33.0919C25.4457 33.1755 25.2786 33.2591 25.1532 33.3844L24.4847 34.8468C24.4011 35.0139 24.3593 35.0975 24.2758 35.1811C24.234 35.2228 24.1504 35.2646 24.0669 35.2646C23.9833 35.2646 23.8997 35.2228 23.8579 35.1811C23.8162 35.1393 23.8162 35.0975 23.7744 35.0557C23.5237 35.1811 23.3148 35.2228 23.1476 35.2228C22.9805 35.2228 22.8134 35.1811 22.688 35.0557C22.5627 34.9304 22.5209 34.805 22.5209 34.6379C22.5209 34.5543 22.5627 34.429 22.6045 34.2618C22.6462 34.1365 22.7716 33.8858 22.9805 33.468C23.1058 33.2173 23.1476 33.0919 23.1476 33.0501C23.1476 32.9666 23.1059 32.9248 23.0223 32.9248C22.9387 32.9248 22.8552 32.9666 22.688 33.0501C22.5627 33.1337 22.3955 33.2173 22.2702 33.3426L21.6017 34.805C21.5181 34.9721 21.4763 35.0557 21.3928 35.1393C21.351 35.1811 21.2674 35.2228 21.1838 35.2228C21.1003 35.2228 21.0167 35.1811 20.9749 35.1393C20.9331 35.0975 20.8914 35.0139 20.8914 34.9304C20.8914 34.9304 20.8914 34.8886 20.8914 34.8468C20.8078 34.8886 20.7242 34.8886 20.5153 34.8886C20.39 34.8886 20.2646 34.9304 20.1393 34.9304L19.6797 36.0585C19.5961 36.2674 19.4708 36.4345 19.3454 36.6017C19.1783 36.7688 19.0111 36.8941 18.844 36.9777C18.6351 37.0613 18.468 37.1031 18.2591 37.1031C18.0501 37.1031 17.8412 37.0195 17.7159 36.8941C17.5905 36.7688 17.507 36.6017 17.507 36.3928C17.507 36.2256 17.5487 36.0167 17.6741 35.8078C17.7577 35.5989 17.9248 35.4318 18.0919 35.2228C18.2173 35.0975 18.3426 35.0139 18.5097 34.9304C18.3008 34.7214 18.2173 34.3454 18.4262 33.844C18.4262 33.8022 19.0529 32.507 19.0529 32.507C19.1365 32.3398 19.2618 32.2145 19.3872 32.2145C19.4708 32.2145 19.5543 32.2563 19.5961 32.298C19.6379 32.3398 19.6797 32.4234 19.6797 32.507C19.6797 32.5487 19.6379 32.6741 19.5543 32.8412L19.0947 33.844C18.9694 34.1365 18.9694 34.3454 19.0529 34.429C19.0947 34.4708 19.1365 34.5125 19.2201 34.5125C19.3872 34.5125 19.5961 34.3872 19.8468 34.0947L20.5153 32.6323C20.5989 32.4652 20.6407 32.3816 20.7242 32.298C20.766 32.2563 20.8496 32.2145 20.9331 32.2145C21.0167 32.2145 21.1003 32.2563 21.1421 32.298C21.1838 32.3398 21.2256 32.4234 21.2256 32.507C21.2256 32.5487 21.1838 32.6741 21.1003 32.8412L20.4318 34.3036C20.5153 34.3036 20.5571 34.3036 20.6407 34.3036C20.8914 34.3036 21.0167 34.3454 21.0585 34.4707L21.8941 32.6741C21.9777 32.507 22.0195 32.4234 22.1031 32.3398C22.1448 32.298 22.2284 32.2563 22.312 32.2563C22.3955 32.2563 22.4791 32.298 22.5209 32.3398C22.5627 32.3816 22.6045 32.4652 22.6045 32.5487V32.6323C22.688 32.5487 22.8134 32.4652 22.9387 32.4234C23.0641 32.3816 23.1894 32.3398 23.3148 32.3398C23.4819 32.3398 23.6072 32.3816 23.6908 32.4652C23.7744 32.5487 23.8579 32.6741 23.8579 32.8412C23.8579 33.0501 23.7744 33.259 23.649 33.5515L23.5237 33.9276L23.3565 34.2618C23.3148 34.3872 23.273 34.4707 23.273 34.5125C23.273 34.5961 23.3148 34.6379 23.3983 34.6379C23.4401 34.6379 23.4819 34.6379 23.5237 34.5961C23.5655 34.5961 23.649 34.5543 23.6908 34.4707C23.7744 34.429 23.8579 34.3454 23.9833 34.2201C24.0251 34.1783 24.0669 34.1783 24.1086 34.1365L24.7772 32.7159C24.8607 32.5487 24.9025 32.4652 24.9861 32.3816C25.0279 32.3398 25.1114 32.298 25.195 32.298C25.2785 32.298 25.3621 32.3398 25.4039 32.3816C25.4457 32.4234 25.4875 32.507 25.4875 32.5905V32.6323C25.571 32.5487 25.6964 32.4652 25.8217 32.4234C25.9471 32.3816 26.0724 32.3398 26.1978 32.3398C26.3649 32.3398 26.4902 32.3816 26.5738 32.4652C26.6574 32.5487 26.7409 32.6741 26.7409 32.8412C26.7409 33.0501 26.6574 33.259 26.532 33.5515L26.3649 33.8858L26.1978 34.2201C26.156 34.3454 26.1142 34.429 26.1142 34.4707C26.1142 34.5543 26.156 34.5961 26.2396 34.5961C26.2813 34.5961 26.3231 34.5961 26.3649 34.5543C26.4067 34.5543 26.4902 34.5125 26.532 34.429C26.6156 34.3872 26.6992 34.3036 26.8245 34.1783C26.8663 34.1365 26.9081 34.1365 26.9499 34.0947C26.9916 33.8858 27.117 33.6769 27.2423 33.4262C27.4513 33.0919 27.7855 32.8412 28.1616 32.6323C28.2869 32.5487 28.4123 32.4652 28.5794 32.4234C28.7465 32.3398 28.9137 32.298 29.0808 32.2563C29.2479 32.2145 29.3733 32.2145 29.4986 32.2145C29.7493 32.2145 29.8747 32.298 29.8747 32.507C29.8747 32.5905 29.8329 32.6741 29.7911 32.7159C29.7493 32.7577 29.624 32.7994 29.4986 32.8412C29.2479 32.883 29.039 32.9666 28.8719 33.0084C28.7047 33.0919 28.4958 33.1755 28.3287 33.3008C28.1198 33.468 27.9526 33.6351 27.8273 33.8022C27.702 33.9694 27.6184 34.1783 27.6184 34.3036C27.6184 34.3872 27.6184 34.4707 27.6602 34.5125C27.702 34.5543 27.7437 34.5961 27.8273 34.5961C27.9109 34.5961 28.0362 34.5543 28.1198 34.4707C28.2033 34.3872 28.3287 34.2618 28.4958 34.0947L28.5376 34.0111C28.6212 33.844 28.663 33.7604 28.663 33.7604L28.7883 33.5097C28.8719 33.3426 28.9136 33.2173 28.9972 33.1755C29.0808 33.0919 29.1226 33.0919 29.2479 33.0919C29.3315 33.0919 29.415 33.1337 29.4568 33.1755C29.4986 33.2173 29.5404 33.3008 29.5404 33.3426C29.5404 33.4262 29.4986 33.5097 29.4568 33.6769L29.3315 33.9276C29.3315 33.9694 29.2897 34.0111 29.2897 34.0529C29.2897 34.0947 29.2479 34.1365 29.2479 34.1783C29.1643 34.3036 29.1643 34.3872 29.1643 34.4707C29.1643 34.5543 29.2061 34.5961 29.2897 34.5961C29.3315 34.5961 29.415 34.5543 29.4986 34.5125C29.5822 34.4707 29.7493 34.3454 29.9582 34.1783C30.0836 34.0947 30.1671 34.0111 30.2089 34.0111C30.2507 33.9694 30.2925 33.9694 30.3343 33.9694C30.2925 34.0111 30.3343 34.0111 30.4178 34.0947ZM19.429 35.2228C19.0111 35.39 18.6769 35.5989 18.4262 35.8496C18.2173 36.0585 18.1337 36.2674 18.1337 36.3928C18.1337 36.4763 18.1337 36.5181 18.1755 36.5599C18.2173 36.6017 18.2591 36.6435 18.3008 36.6435C18.468 36.6435 18.6351 36.5599 18.8022 36.351C18.9276 36.2256 19.0111 36.1003 19.0529 35.9749L19.429 35.2228ZM55.0696 34.0529C55.1114 34.0947 55.1532 34.1783 55.1532 34.2201C55.1532 34.3454 55.0279 34.5125 54.7772 34.7214C54.5682 34.8886 54.4011 35.0139 54.1504 35.0975C53.9415 35.1811 53.7326 35.2646 53.5655 35.2646C53.4401 35.2646 53.3565 35.2228 53.273 35.1811C53.1894 35.1393 53.1476 35.0557 53.0641 34.9304L53.0223 34.9721C52.8134 35.0975 52.6462 35.1811 52.5209 35.2228C52.3955 35.2646 52.2702 35.3064 52.1031 35.3064C51.9359 35.3064 51.7688 35.2646 51.6435 35.1393C51.6017 35.0975 51.5599 35.0557 51.5181 34.9721C51.3928 35.0557 51.3092 35.0975 51.1838 35.1393C50.9749 35.2228 50.766 35.3064 50.5989 35.3064C50.4735 35.3064 50.39 35.2646 50.3064 35.2228C50.2228 35.1811 50.1811 35.0975 50.0975 34.9721L50.0557 35.0139C49.8468 35.1393 49.6797 35.2228 49.5543 35.2646C49.429 35.3064 49.3036 35.3482 49.1365 35.3482C48.9694 35.3482 48.8022 35.3064 48.6769 35.1811C48.6351 35.1393 48.5933 35.0975 48.5515 35.0139C48.2173 35.2228 47.9248 35.3482 47.6741 35.3482C47.507 35.3482 47.3398 35.3064 47.2145 35.1811C47.0891 35.0557 47.0474 34.9304 47.0474 34.7632C47.0474 34.6797 47.0474 34.5961 47.0891 34.4707C47.1309 34.3872 47.1727 34.2618 47.2145 34.1365H46.5042L46.1281 34.9721C46.0446 35.1393 46.0028 35.2228 45.9192 35.3064C45.8774 35.3482 45.7939 35.39 45.7103 35.39C45.6267 35.39 45.5432 35.3482 45.5014 35.3064C45.4596 35.2646 45.4596 35.2646 45.4178 35.2228C45.376 35.2646 45.2925 35.2646 45.2507 35.3064C45.0836 35.39 44.9164 35.39 44.7911 35.39C44.5404 35.39 44.3733 35.2646 44.3315 35.0557C44.1643 35.1811 43.9972 35.2646 43.9137 35.3064C43.7883 35.3482 43.663 35.39 43.5376 35.39C43.3287 35.39 43.1198 35.3064 42.9944 35.1811C42.9526 35.1393 42.9109 35.0557 42.8691 34.9721C42.493 35.2228 42.1588 35.39 41.8663 35.39C41.6992 35.39 41.532 35.3482 41.4067 35.2228C41.2813 35.0975 41.2396 34.9721 41.2396 34.805C41.2396 34.7214 41.2813 34.5961 41.3231 34.429C41.3649 34.3036 41.4902 34.0529 41.6992 33.6351C41.8245 33.3844 41.8663 33.2591 41.8663 33.2173C41.8663 33.1337 41.8245 33.0919 41.7409 33.0919C41.6574 33.0919 41.5738 33.1337 41.4067 33.2173C41.2813 33.3008 41.1142 33.3844 40.9889 33.5097L40.3203 34.9721C40.2368 35.1393 40.195 35.2228 40.1114 35.3064C40.0696 35.3482 39.9861 35.39 39.9025 35.39C39.8189 35.39 39.7354 35.3482 39.6936 35.3064C39.6518 35.2646 39.6518 35.2646 39.61 35.2228C39.4011 35.3482 39.1922 35.39 38.9833 35.39C38.8162 35.39 38.649 35.3482 38.5237 35.2228C38.4401 35.1393 38.3983 35.0557 38.3565 34.9721C38.0641 35.2228 37.688 35.39 37.4791 35.39C37.3538 35.39 37.2702 35.3482 37.1866 35.3064C37.1031 35.2646 37.0613 35.1811 37.0195 35.0557C36.4345 35.4735 35.8914 35.4735 35.6824 35.1393C35.4735 35.3064 35.2646 35.3482 35.0139 35.3482C34.7632 35.3482 34.5543 35.2646 34.3872 35.0975C34.3454 35.0557 34.3036 34.9721 34.2618 34.8886C34.2201 34.9304 34.1783 34.9304 34.1783 34.9721C33.9276 35.0975 33.7604 35.2228 33.5933 35.2646C33.4262 35.3064 33.3008 35.3482 33.1755 35.3482C33.0501 35.3482 32.9248 35.3064 32.8412 35.2646C32.7577 35.1811 32.6741 35.0975 32.6323 34.9304C32.5487 34.6797 32.4652 34.3872 32.4234 34.0529C32.3398 34.1365 32.2145 34.1783 32.0891 34.3036L31.7967 34.9721C31.7131 35.1393 31.6713 35.2228 31.5877 35.3064C31.546 35.3482 31.4624 35.39 31.3788 35.39C31.2953 35.39 31.2117 35.3482 31.1699 35.3064C31.1281 35.2646 31.0863 35.1811 31.0863 35.0975C31.0863 35.0557 31.1281 34.9304 31.2117 34.7632L32.1309 32.8412C32.2145 32.6741 32.2563 32.5905 32.3398 32.507C32.3816 32.4652 32.4652 32.4234 32.5487 32.4234C32.6323 32.4234 32.7159 32.4652 32.7577 32.507C32.7994 32.5487 32.8412 32.6323 32.8412 32.7159C32.8412 32.7577 32.7994 32.883 32.7159 33.0501L32.6323 33.2591C32.7994 33.1337 33.0501 32.9248 33.4262 32.7159C33.7187 32.507 33.9276 32.4234 34.0529 32.4234C34.0947 32.4234 34.1365 32.4234 34.1783 32.4652C34.2201 32.507 34.2618 32.5487 34.2618 32.5905C34.3036 32.6323 34.3036 32.6741 34.3036 32.7159C34.3036 32.7994 34.3036 32.8412 34.2618 32.883C34.2201 32.9248 34.1365 32.9666 34.0111 33.0501L33.7604 33.2173L33.4262 33.4262C33.3426 33.468 33.2173 33.5515 33.0501 33.6769L33.0084 33.7187C33.0501 33.9694 33.0919 34.2201 33.1755 34.429C33.2173 34.5543 33.2591 34.6379 33.3008 34.6797C33.3426 34.7214 33.3844 34.7632 33.4262 34.7632C33.5515 34.7632 33.844 34.6379 34.2618 34.3454C34.2618 34.1365 34.3036 33.9276 34.3872 33.7187C34.4708 33.468 34.5961 33.259 34.7215 33.0919C34.8886 32.883 35.0557 32.7577 35.2228 32.6323C35.39 32.507 35.5989 32.4652 35.8078 32.4652C35.9749 32.4652 36.1421 32.507 36.2674 32.5905C36.3928 32.6741 36.4763 32.7994 36.5599 32.9248C36.6435 33.0501 36.6435 33.2591 36.6435 33.4262C36.6435 33.7604 36.5599 34.0947 36.4345 34.3872C36.3928 34.4707 36.351 34.5961 36.2674 34.6797C36.2674 34.8886 36.6017 34.9304 37.1448 34.429L37.8552 32.883C37.9387 32.7159 37.9805 32.6323 38.0641 32.5487C38.1059 32.507 38.1894 32.4652 38.273 32.4652C38.3565 32.4652 38.4401 32.507 38.4819 32.5487C38.5237 32.5905 38.5655 32.6741 38.5655 32.7577C38.5655 32.7994 38.5237 32.9248 38.4819 33.0501L37.8969 34.3036C37.8134 34.4707 37.7716 34.5961 37.7716 34.6379C37.7716 34.6797 37.8134 34.7214 37.8552 34.7214C37.9805 34.7214 38.1894 34.5961 38.5237 34.3036L39.1922 32.8412C39.2758 32.6741 39.3175 32.5905 39.4011 32.507C39.4429 32.4652 39.5265 32.4234 39.61 32.4234C39.6936 32.4234 39.7772 32.4652 39.8189 32.507C39.8607 32.5487 39.9025 32.6323 39.9025 32.7159C39.9025 32.7577 39.8607 32.883 39.7772 33.0084L39.1504 34.3036C39.1086 34.429 39.0668 34.5125 39.0668 34.5543C39.0668 34.6379 39.1086 34.6797 39.1922 34.6797C39.234 34.6797 39.2758 34.6797 39.3176 34.6379C39.3593 34.6379 39.4429 34.5961 39.4847 34.5125C39.5682 34.4707 39.6518 34.3872 39.7772 34.2618C39.8189 34.2201 39.8607 34.2201 39.8607 34.1783L40.5292 32.7159C40.6128 32.5487 40.6546 32.4652 40.7382 32.3816C40.7799 32.3398 40.8635 32.298 40.9471 32.298C41.0306 32.298 41.1142 32.3398 41.156 32.3816C41.1978 32.4234 41.2396 32.507 41.2396 32.5905V32.6323C41.3231 32.5487 41.4485 32.4652 41.5738 32.4234C41.6992 32.3816 41.8245 32.3398 41.9499 32.3398C42.117 32.3398 42.2423 32.3816 42.3259 32.4652C42.4095 32.5487 42.493 32.6741 42.493 32.8412C42.493 33.0501 42.4095 33.259 42.2841 33.5515L42.117 33.8858L41.9499 34.2201C41.9081 34.3454 41.8663 34.429 41.8663 34.4707C41.8663 34.5543 41.9081 34.5961 41.9916 34.5961C42.0334 34.5961 42.0752 34.5961 42.117 34.5543C42.1588 34.5543 42.2423 34.5125 42.2841 34.429C42.3677 34.3872 42.4513 34.3036 42.5766 34.1783C42.6184 34.1365 42.6602 34.1365 42.702 34.0947C42.7437 33.8858 42.8691 33.6769 42.9944 33.4262C43.2033 33.0919 43.5376 32.8412 43.9137 32.6323C44.039 32.5487 44.1643 32.4652 44.3315 32.4234C44.4986 32.3398 44.6657 32.298 44.8329 32.2563C45 32.2145 45.1253 32.2145 45.2507 32.2145C45.5014 32.2145 45.6267 32.298 45.6267 32.507C45.6267 32.5905 45.585 32.6741 45.5432 32.7159C45.5014 32.7577 45.376 32.7994 45.2507 32.8412C45 32.883 44.7911 32.9666 44.624 33.0084C44.4568 33.0919 44.2479 33.1755 44.0808 33.3008C43.8719 33.468 43.7047 33.6351 43.5794 33.8022C43.454 33.9694 43.3705 34.1783 43.3705 34.3036C43.3705 34.3872 43.3705 34.4707 43.4123 34.5125C43.454 34.5543 43.4958 34.5961 43.5794 34.5961C43.663 34.5961 43.7883 34.5543 43.8719 34.4707C43.9554 34.3872 44.0808 34.2618 44.2479 34.0947L44.2897 34.0111C44.3733 33.844 44.415 33.7604 44.415 33.7604L44.5404 33.5097C44.624 33.3426 44.6657 33.2173 44.7493 33.1755C44.8329 33.0919 44.8747 33.0919 45 33.0919C45.0836 33.0919 45.1671 33.1337 45.2089 33.1755C45.2507 33.2173 45.2925 33.3008 45.2925 33.3426C45.2925 33.4262 45.2507 33.5097 45.2089 33.6769L45.0836 33.9276C45.0836 33.9694 45.0418 34.0111 45.0418 34.0529C45.0418 34.0947 45 34.1365 45 34.1783C44.9164 34.3036 44.9164 34.3872 44.9164 34.4707C44.9164 34.5543 44.9582 34.5961 45.0418 34.5961C45.0836 34.5961 45.1671 34.5543 45.2507 34.5125C45.3343 34.4707 45.5014 34.3454 45.7103 34.1783L46.4206 32.6741C46.5042 32.507 46.546 32.4234 46.6295 32.3398C46.6713 32.298 46.7549 32.2563 46.8384 32.2563C46.922 32.2563 47.0056 32.298 47.0474 32.3398C47.0891 32.3816 47.1309 32.4652 47.1309 32.5487C47.1309 32.6323 47.0891 32.7159 47.0056 32.883L46.7131 33.468H47.4234L47.7994 32.7159C47.883 32.5487 47.9248 32.4652 48.0084 32.3816C48.0501 32.3398 48.1337 32.298 48.2173 32.298C48.3008 32.298 48.3844 32.3398 48.4262 32.3816C48.468 32.4234 48.5098 32.507 48.5098 32.5905C48.5098 32.6741 48.468 32.7577 48.3844 32.9248L47.7577 34.2201C47.7159 34.3454 47.6741 34.429 47.6741 34.4707C47.6741 34.5543 47.7159 34.5961 47.7994 34.5961C47.9248 34.5961 48.1337 34.4708 48.4262 34.2201C48.468 34.1783 48.5098 34.1365 48.5515 34.1365C48.5933 34.0947 48.5933 34.0529 48.6351 33.9694L49.2201 32.7159C49.3036 32.5487 49.3454 32.4652 49.429 32.3816C49.4708 32.3398 49.5543 32.298 49.6379 32.298C49.7214 32.298 49.805 32.3398 49.8468 32.3816C49.8886 32.4234 49.9304 32.507 49.9304 32.5905C49.9304 32.6323 49.8886 32.7577 49.805 32.9248L49.3036 34.0529L49.2618 34.1365C49.1783 34.3036 49.1365 34.429 49.1365 34.5125C49.1365 34.5961 49.1783 34.6379 49.2618 34.6379C49.3454 34.6379 49.429 34.5961 49.5543 34.5125C49.6797 34.429 49.8468 34.3454 50.0139 34.1783L50.6824 32.7577C50.766 32.5905 50.8078 32.507 50.8914 32.4234C50.9331 32.3816 51.0167 32.3398 51.1003 32.3398C51.1838 32.3398 51.2674 32.3816 51.3092 32.4234C51.351 32.4652 51.3928 32.5487 51.3928 32.6323C51.3928 32.6741 51.351 32.7994 51.2674 32.9666L50.6824 34.2201L50.6407 34.3036C50.5989 34.429 50.5571 34.5125 50.5571 34.5543C50.5571 34.5961 50.5571 34.5961 50.5989 34.6379C50.6407 34.6797 50.6407 34.6797 50.6824 34.6797C50.8078 34.6797 51.0585 34.5125 51.4345 34.2201C51.4763 34.1783 51.4763 34.0947 51.5181 34.0529L52.1031 32.7994C52.1866 32.6323 52.2284 32.5487 52.312 32.4652C52.3538 32.4234 52.4373 32.3816 52.5209 32.3816C52.6045 32.3816 52.688 32.4234 52.7298 32.4652C52.7716 32.507 52.8134 32.5905 52.8134 32.6741C52.8134 32.7159 52.7716 32.8412 52.688 33.0084L52.1866 34.1365L52.1448 34.2201C52.0613 34.3872 52.0195 34.5125 52.0195 34.5961C52.0195 34.6797 52.0613 34.7214 52.1448 34.7214C52.2284 34.7214 52.312 34.6797 52.4373 34.5961C52.5627 34.5125 52.7298 34.429 52.8969 34.2618L53.5655 32.8412C53.649 32.6741 53.6908 32.5905 53.7744 32.507C53.8162 32.4652 53.8997 32.4234 53.9833 32.4234C54.0668 32.4234 54.1504 32.4652 54.1922 32.507C54.234 32.5487 54.2758 32.6323 54.2758 32.7159C54.2758 32.7577 54.234 32.883 54.1504 33.0501L53.5655 34.3036L53.5237 34.3872C53.4819 34.5125 53.4401 34.5961 53.4401 34.6379C53.4401 34.6797 53.4401 34.6797 53.4819 34.7214C53.5237 34.7632 53.5237 34.7632 53.5655 34.7632C53.6908 34.7632 53.9415 34.5961 54.3175 34.3036C54.4429 34.1783 54.5265 34.1365 54.61 34.1365C54.9861 33.9694 55.0279 34.0111 55.0696 34.0529ZM36.2256 33.3008C36.2256 33.1755 36.1838 33.0919 36.1421 33.0501C36.1003 33.0084 36.0167 32.9666 35.9331 32.9666C35.8496 32.9666 35.7242 33.0084 35.6407 33.1337C35.5571 33.2173 35.4318 33.3844 35.3482 33.5933C35.2228 33.8858 35.1811 34.0947 35.1811 34.3036C35.1811 34.429 35.2228 34.5125 35.2646 34.5543C35.3064 34.5961 35.39 34.6379 35.4735 34.6379C35.6407 34.6379 35.8496 34.4707 36.0167 34.0947C36.1421 33.8022 36.2256 33.5515 36.2256 33.3008ZM53.5655 32.3398C53.649 32.3398 53.6908 32.298 53.7744 32.2563C53.8162 32.2145 53.8997 32.1309 53.9415 31.9638L54.0251 31.7549C54.1086 31.6295 54.1086 31.546 54.1086 31.4624C54.1086 31.3788 54.0669 31.337 54.0251 31.2953C53.9833 31.2535 53.8997 31.2117 53.8162 31.2117C53.7326 31.2117 53.6908 31.2535 53.6072 31.2953C53.5655 31.337 53.4819 31.4206 53.4401 31.5877L53.3565 31.7967C53.3148 31.922 53.273 32.0056 53.273 32.0891C53.273 32.1727 53.3148 32.2145 53.3565 32.2563C53.3983 32.298 53.4819 32.3398 53.5655 32.3398ZM60 30C60 46.546 46.5877 60 30 60C13.454 60 0 46.5877 0 30C0 13.454 13.4123 0 30 0C46.546 0 60 13.4123 60 30ZM57.7437 30C57.7437 28.9554 57.702 27.9526 57.5766 26.9499C57.2841 27.1588 56.9499 27.3259 56.6156 27.4513C56.0724 27.6602 55.4875 27.7019 54.9861 27.6602C54.4847 27.6184 53.9833 27.4513 53.5655 27.2006C53.5237 27.2423 53.5237 27.2841 53.5237 27.3259C52.9805 28.454 52.2702 29.3733 51.3928 30.0418C50.5153 30.7103 49.5961 31.0863 48.6351 31.0863C47.6741 31.0863 46.8802 30.7521 46.2953 30.0836C46.1281 29.8747 45.961 29.6657 45.8774 29.4568C45.6267 29.624 45.4178 29.7911 45.1671 29.9582C44.5822 30.2925 44.039 30.585 43.454 30.7939C42.8691 31.0028 42.4095 31.0863 42.0334 31.0863C41.3649 31.0863 40.7799 30.8774 40.4039 30.5014C39.9861 30.1253 39.7772 29.5822 39.7772 28.9554C39.7772 28.4958 39.8607 28.0362 40.0279 27.5348C40.195 27.0334 40.5292 26.3231 40.9471 25.4039C41.6156 24.1086 41.9499 23.273 41.9499 22.9805C41.9499 22.8969 41.9081 22.8134 41.8663 22.7716C41.7827 22.7298 41.6992 22.688 41.5738 22.688C41.0724 22.688 40.3621 23.1058 39.3593 23.9415L36.6852 29.6657C36.3928 30.2507 36.1838 30.6685 35.9749 30.8357C35.766 31.0446 35.5153 31.1281 35.1811 31.1281C34.8468 31.1281 34.5961 31.0446 34.3872 30.8357C34.1783 30.6267 34.0947 30.376 34.0947 30.0836C34.0947 29.8747 34.2201 29.4568 34.4707 28.9136L36.4763 24.2758C36.7688 23.6072 36.9359 23.1894 36.9359 22.9805C36.9359 22.7716 36.8106 22.6462 36.6017 22.6462C36.1421 22.6462 35.3064 23.1476 34.1365 24.1504L34.0529 24.1922L31.546 29.5822C31.2535 30.1671 31.0446 30.585 30.8357 30.7521C30.6267 30.961 30.376 31.0446 30.0418 31.0446C29.7075 31.0446 29.4568 30.961 29.2479 30.7521C29.039 30.5432 28.9554 30.3343 28.9554 30.0418C27.4513 30.6685 26.0724 31.0028 24.9025 31.0028C23.5237 31.0028 22.4791 30.4596 21.8524 29.4568C17.8412 32.507 14.415 30.3343 16.1281 26.6574C16.922 24.9861 21.2256 15.7939 22.7298 12.6184C23.6072 10.7799 22.9805 10.4039 20.4318 11.4067C17.7994 12.4513 15 14.7493 12.9109 17.5905C11.0306 20.1393 8.81615 24.3593 8.81615 30.2089C8.81615 31.5042 8.9415 32.8412 9.1922 34.0947C9.31755 34.7632 8.85794 35.4318 8.18941 35.5571C8.10585 35.5571 8.02228 35.5989 7.93872 35.5989C7.35376 35.5989 6.81058 35.1811 6.72702 34.5961C6.47632 33.1755 6.30919 31.7131 6.30919 30.2507C6.30919 18.5933 14.2061 11.2396 19.4708 9.15042C24.9025 7.0195 26.532 10.3621 24.9443 13.7465C23.4401 16.922 19.0947 26.1142 18.3426 27.7855C17.7577 29.0808 19.2201 29.1643 21.1838 27.2841C21.1838 26.8663 21.2256 26.4067 21.351 25.9471C21.5181 25.2785 21.8106 24.61 22.1866 23.9415C22.9805 22.6045 24.4847 21.1838 25.7382 20.5989C26.3231 20.3064 26.9081 20.1811 27.493 20.1811C28.2033 20.1811 28.7883 20.39 29.2479 20.8078C29.6657 21.2256 29.9164 21.7688 29.9164 22.4791C29.9164 23.2312 29.6657 23.8997 29.1226 24.5265C28.5794 25.1532 27.8273 25.6546 26.9081 26.0724C25.9471 26.4902 24.8607 26.6992 23.649 26.8245C23.6072 27.0334 23.5655 27.2006 23.5655 27.3677C23.5655 27.7855 23.7326 28.1198 24.0251 28.4123C24.3175 28.663 24.7354 28.7883 25.195 28.7883C25.6128 28.7883 26.0306 28.7465 26.532 28.6212C27.0334 28.4958 27.493 28.3705 27.9526 28.1616C28.5794 27.9109 29.3315 27.493 30.2089 26.9916L32.6741 21.727C32.9666 21.1421 33.1755 20.7242 33.3844 20.5571C33.5933 20.3482 33.844 20.2646 34.1783 20.2646C34.5125 20.2646 34.7632 20.3482 34.9721 20.5153C35.1811 20.6824 35.2646 20.9331 35.3064 21.2256C36.1838 20.5571 36.9777 20.2228 37.688 20.2228C38.1476 20.2228 38.5237 20.3482 38.8162 20.5571C39.1086 20.766 39.3175 21.0585 39.4011 21.4345C40.5292 20.6407 41.5738 20.2228 42.5766 20.2228C43.1616 20.2228 43.663 20.39 44.039 20.7242C44.415 21.0585 44.624 21.5181 44.624 22.0613C44.624 22.5209 44.5404 22.9805 44.3733 23.4401C44.2061 23.8997 43.7883 24.7772 43.1616 26.0724C42.702 26.9916 42.4513 27.5348 42.3677 27.7019C42.2841 27.8691 42.2423 28.0362 42.2423 28.2033C42.2423 28.3287 42.2841 28.454 42.3677 28.5376C42.4513 28.6212 42.5766 28.7047 42.702 28.7047C42.9526 28.7047 43.2033 28.6212 43.4958 28.4123C43.7883 28.2033 44.2897 27.8691 44.9582 27.3259C45.0836 27.2006 45.2089 27.117 45.3343 27.0334C45.376 26.2813 45.5014 25.5292 45.7939 24.7772C46.0863 23.8997 46.5042 23.1476 47.0891 22.4373C47.6323 21.727 48.2591 21.1838 48.9694 20.8078C49.6797 20.4318 50.3482 20.2228 51.0585 20.2228C51.727 20.2228 52.312 20.3482 52.7716 20.6407C53.2312 20.9331 53.6072 21.351 53.8579 21.8524C54.1086 22.3955 54.234 23.0223 54.234 23.7744C54.234 24.1504 54.1922 24.5265 54.1504 24.9025C54.61 25.4875 55.3203 25.5292 55.8635 25.3621C56.4902 25.1532 57.1588 24.5265 56.9499 23.5237C54.0669 11.3231 43.078 2.25627 30 2.25627C14.7075 2.25627 2.29805 14.6657 2.29805 29.9582C2.29805 45.2507 14.7075 57.6602 30 57.6602C45.3343 57.7019 57.7437 45.2925 57.7437 30ZM51.4763 22.8134C51.3092 22.6045 51.0585 22.4791 50.766 22.4791C50.39 22.4791 50.0139 22.6462 49.6379 23.0641C49.2618 23.4401 48.9276 24.0251 48.5515 24.7772C48.0919 25.8217 47.883 26.6992 47.883 27.4513C47.883 27.8273 47.9666 28.1616 48.1755 28.3705C48.3426 28.5794 48.6351 28.7047 48.9276 28.7047C49.5961 28.7047 50.2646 28.0362 50.9331 26.6992C51.4763 25.6546 51.727 24.6518 51.727 23.7744C51.727 23.3565 51.6435 23.0223 51.4763 22.8134ZM26.7409 23.8579C27.4513 23.4819 27.7855 23.1058 27.7855 22.7298C27.7855 22.6045 27.7437 22.4791 27.6602 22.3955C27.5766 22.312 27.4513 22.2702 27.2841 22.2702C26.9081 22.2702 26.4067 22.4791 25.8217 22.9387C25.2368 23.3983 24.7772 23.9415 24.3593 24.61C25.2368 24.4847 26.0306 24.234 26.7409 23.8579Z" fill="white"/>
</svg>
